<svg xmlns="http://www.w3.org/2000/svg" viewBox="0 0 64 64" width="64" height="64">
  <!-- Left monitor -->
  <rect x="2" y="8" width="26" height="20" rx="1" fill="#4a5568" stroke="#2d3748" stroke-width="1.5"/>
  <rect x="4" y="10" width="22" height="16" fill="#1a202c"/>
  
  <!-- Workspaces on left monitor (1-5) -->
  <circle cx="9" cy="15" r="1.5" fill="#48bb78"/>
  <circle cx="13" cy="15" r="1.5" fill="#48bb78"/>
  <circle cx="17" cy="15" r="1.5" fill="#48bb78"/>
  <circle cx="21" cy="15" r="1.5" fill="#48bb78"/>
  <circle cx="25" cy="15" r="1.5" fill="#48bb78"/>
  
  <!-- Left monitor stand -->
  <rect x="13" y="28" width="2" height="4" fill="#4a5568"/>
  <rect x="10" y="32" width="8" height="1.5" rx="0.5" fill="#4a5568"/>
  
  <!-- Right monitor -->
  <rect x="36" y="8" width="26" height="20" rx="1" fill="#4a5568" stroke="#2d3748" stroke-width="1.5"/>
  <rect x="38" y="10" width="22" height="16" fill="#1a202c"/>
  
  <!-- Workspaces on right monitor (6-10) -->
  <circle cx="43" cy="15" r="1.5" fill="#4299e1"/>
  <circle cx="47" cy="15" r="1.5" fill="#4299e1"/>
  <circle cx="51" cy="15" r="1.5" fill="#4299e1"/>
  <circle cx="55" cy="15" r="1.5" fill="#4299e1"/>
  <circle cx="59" cy="15" r="1.5" fill="#4299e1"/>
  
  <!-- Right monitor stand -->
  <rect x="49" y="28" width="2" height="4" fill="#4a5568"/>
  <rect x="46" y="32" width="8" height="1.5" rx="0.5" fill="#4a5568"/>
  
  <!-- Arrow showing organization -->
  <path d="M 15 42 L 15 50 L 49 50 L 49 42" stroke="#9ae6b4" stroke-width="2" fill="none" stroke-linecap="round" stroke-linejoin="round"/>
  <path d="M 12 42 L 15 38 L 18 42" fill="#9ae6b4"/>
  <path d="M 46 42 L 49 38 L 52 42" fill="#9ae6b4"/>
</svg>
